<?xml version="1.0" encoding="UTF-8" standalone="no"?>
<!DOCTYPE svg PUBLIC "-//W3C//DTD SVG 1.1//EN"
 "http://www.w3.org/Graphics/SVG/1.1/DTD/svg11.dtd">
<!-- Generated by graphviz version 12.2.1 (20241206.2353)
 -->
<!-- Title: eshopmicroservices Pages: 1 -->
<svg width="560pt" height="688pt"
 viewBox="0.00 0.00 560.25 688.00" xmlns="http://www.w3.org/2000/svg" xmlns:xlink="http://www.w3.org/1999/xlink">
<g id="graph0" class="graph" transform="scale(1 1) rotate(0) translate(4 684)">
<title>eshopmicroservices</title>
<polygon fill="white" stroke="none" points="-4,4 -4,-684 556.25,-684 556.25,4 -4,4"/>
<text text-anchor="start" x="179.75" y="-658" font-family="Helvetica,sans-Serif" font-weight="bold" font-size="20.00">eshopmicroservices</text>
<text text-anchor="start" x="229.62" y="-641.8" font-family="Helvetica,sans-Serif" font-size="16.00">data schema</text>
<g id="clust1" class="cluster">
<title>cluster_legend</title>
<polygon fill="none" stroke="none" points="8,-8 8,-628 544.25,-628 544.25,-8 8,-8"/>
<polygon fill="white" stroke="none" points="370.75,-12 370.75,-140 536.25,-140 536.25,-12 370.75,-12"/>
<text text-anchor="start" x="374.75" y="-126.55" font-family="Helvetica,sans-Serif" font-weight="bold" font-size="11.00">Legend</text>
<polygon fill="#d62728" stroke="none" points="374.75,-110.5 374.75,-113.5 398.75,-113.5 398.75,-110.5 374.75,-110.5"/>
<text text-anchor="start" x="404.75" y="-107.55" font-family="Helvetica,sans-Serif" font-size="11.00">mandatory foreign key</text>
<polygon fill="#555555" stroke="none" points="374.75,-92.5 374.75,-95.5 398.75,-95.5 398.75,-92.5 374.75,-92.5"/>
<text text-anchor="start" x="404.75" y="-89.55" font-family="Helvetica,sans-Serif" font-size="11.00">foreign key, not mandatory</text>
<polygon fill="#2a6fd6" stroke="none" points="374.75,-74.5 374.75,-77.5 398.75,-77.5 398.75,-74.5 374.75,-74.5"/>
<text text-anchor="start" x="404.75" y="-71.55" font-family="Helvetica,sans-Serif" font-size="11.00">transitive foreign key</text>
<text text-anchor="start" x="380.38" y="-55.33" font-family="Helvetica,sans-Serif" font-weight="bold" font-size="9.00" fill="#6b6b6b">PK</text>
<text text-anchor="start" x="404.75" y="-53.55" font-family="Helvetica,sans-Serif" font-size="11.00">primary key</text>
<text text-anchor="start" x="380" y="-37.33" font-family="Helvetica,sans-Serif" font-weight="bold" font-size="9.00" fill="#6b6b6b">UQ</text>
<text text-anchor="start" x="404.75" y="-35.55" font-family="Helvetica,sans-Serif" font-size="11.00">unique</text>
<text text-anchor="start" x="380.75" y="-19.32" font-family="Helvetica,sans-Serif" font-weight="bold" font-size="9.00" fill="#6b6b6b">FK</text>
<text text-anchor="start" x="404.75" y="-17.55" font-family="Helvetica,sans-Serif" font-size="11.00">foreign key field</text>
<polygon fill="none" stroke="#8a8a8a" points="370.75,-12 370.75,-140 536.25,-140 536.25,-12 370.75,-12"/>
</g>
<g id="clust2" class="cluster">
<title>cluster_db_basket_db</title>
<path fill="#f1f9f2" stroke="#26803a" d="M28,-222C28,-222 151.5,-222 151.5,-222 157.5,-222 163.5,-228 163.5,-234 163.5,-234 163.5,-450 163.5,-450 163.5,-456 157.5,-462 151.5,-462 151.5,-462 28,-462 28,-462 22,-462 16,-456 16,-450 16,-450 16,-234 16,-234 16,-228 22,-222 28,-222"/>
<text text-anchor="middle" x="89.75" y="-445.65" font-family="Helvetica,sans-Serif" font-size="13.00">basket_db</text>
</g>
<g id="clust3" class="cluster">
<title>cluster_db_catalog_db</title>
<path fill="#f1f9f2" stroke="#26803a" d="M268.5,-252C268.5,-252 326.5,-252 326.5,-252 332.5,-252 338.5,-258 338.5,-264 338.5,-264 338.5,-420 338.5,-420 338.5,-426 332.5,-432 326.5,-432 326.5,-432 268.5,-432 268.5,-432 262.5,-432 256.5,-426 256.5,-420 256.5,-420 256.5,-264 256.5,-264 256.5,-258 262.5,-252 268.5,-252"/>
<text text-anchor="middle" x="297.5" y="-415.65" font-family="Helvetica,sans-Serif" font-size="13.00">catalog_db</text>
</g>
<g id="clust4" class="cluster">
<title>cluster_db_discount_db</title>
<path fill="#f1f9f2" stroke="#26803a" d="M262.62,-440C262.62,-440 331.38,-440 331.38,-440 337.38,-440 343.38,-446 343.38,-452 343.38,-452 343.38,-548 343.38,-548 343.38,-554 337.38,-560 331.38,-560 331.38,-560 262.62,-560 262.62,-560 256.62,-560 250.62,-554 250.62,-548 250.62,-548 250.62,-452 250.62,-452 250.62,-446 256.62,-440 262.62,-440"/>
<text text-anchor="middle" x="297" y="-543.65" font-family="Helvetica,sans-Serif" font-size="13.00">discount_db</text>
</g>
<g id="clust5" class="cluster">
<title>cluster_db_order_db</title>
<path fill="#f1f9f2" stroke="#26803a" d="M454.75,-152C454.75,-152 513,-152 513,-152 519,-152 525,-158 525,-164 525,-164 525,-240 525,-240 525,-246 519,-252 513,-252 513,-252 454.75,-252 454.75,-252 448.75,-252 442.75,-246 442.75,-240 442.75,-240 442.75,-164 442.75,-164 442.75,-158 448.75,-152 454.75,-152"/>
<text text-anchor="middle" x="483.88" y="-235.65" font-family="Helvetica,sans-Serif" font-size="13.00">order_db</text>
</g>
<g id="clust6" class="cluster">
<title>cluster_db_order_queue</title>
<path fill="#f1f9f2" stroke="#26803a" d="M443.5,-260C443.5,-260 524.25,-260 524.25,-260 530.25,-260 536.25,-266 536.25,-272 536.25,-272 536.25,-608 536.25,-608 536.25,-614 530.25,-620 524.25,-620 524.25,-620 443.5,-620 443.5,-620 437.5,-620 431.5,-614 431.5,-608 431.5,-608 431.5,-272 431.5,-272 431.5,-266 437.5,-260 443.5,-260"/>
<text text-anchor="middle" x="483.88" y="-603.65" font-family="Helvetica,sans-Serif" font-size="13.00">order_queue</text>
</g>
<!-- basket_db.basket -->
<g id="node1" class="node">
<title>basket_db.basket</title>
<polygon fill="white" stroke="none" points="24,-230 24,-432 155.5,-432 155.5,-230 24,-230"/>
<polygon fill="#d3f2d9" stroke="none" points="25,-411 25,-431 154.5,-431 154.5,-411 25,-411"/>
<text text-anchor="start" x="72.5" y="-417.55" font-family="Helvetica,sans-Serif" font-weight="bold" font-size="11.00">basket</text>
<text text-anchor="start" x="29" y="-396.55" font-family="Helvetica,sans-Serif" font-size="11.00">Items</text>
<text text-anchor="start" x="29" y="-376.55" font-family="Helvetica,sans-Serif" font-size="11.00">Items[*]</text>
<text text-anchor="start" x="29" y="-356.55" font-family="Helvetica,sans-Serif" font-size="11.00">Items[*].Color</text>
<text text-anchor="start" x="29" y="-337.55" font-family="Helvetica,sans-Serif" font-size="11.00">Items[*].Price </text>
<text text-anchor="start" x="96.5" y="-337.55" font-family="Helvetica,sans-Serif" font-weight="bold" font-size="9.00" fill="#6b6b6b">FK</text>
<text text-anchor="start" x="29" y="-317.55" font-family="Helvetica,sans-Serif" font-size="11.00">Items[*].ProductId </text>
<text text-anchor="start" x="118.25" y="-317.55" font-family="Helvetica,sans-Serif" font-weight="bold" font-size="9.00" fill="#6b6b6b">FK</text>
<text text-anchor="start" x="29" y="-297.55" font-family="Helvetica,sans-Serif" font-size="11.00">Items[*].ProductName </text>
<text text-anchor="start" x="138.5" y="-297.55" font-family="Helvetica,sans-Serif" font-weight="bold" font-size="9.00" fill="#6b6b6b">FK</text>
<text text-anchor="start" x="29" y="-276.55" font-family="Helvetica,sans-Serif" font-size="11.00">Items[*].Quantity</text>
<text text-anchor="start" x="29" y="-256.55" font-family="Helvetica,sans-Serif" font-size="11.00">TotalPrice</text>
<text text-anchor="start" x="29" y="-236.55" font-family="Helvetica,sans-Serif" font-size="11.00">UserName</text>
<polygon fill="none" stroke="#26803a" points="24,-230 24,-432 155.5,-432 155.5,-230 24,-230"/>
</g>
<!-- catalog_db.product -->
<g id="node2" class="node">
<title>catalog_db.product</title>
<polygon fill="white" stroke="none" points="265,-260 265,-402 329,-402 329,-260 265,-260"/>
<polygon fill="#d3f2d9" stroke="none" points="266,-381 266,-401 328,-401 328,-381 266,-381"/>
<text text-anchor="start" x="276.38" y="-387.55" font-family="Helvetica,sans-Serif" font-weight="bold" font-size="11.00">product</text>
<text text-anchor="start" x="270" y="-366.55" font-family="Helvetica,sans-Serif" font-size="11.00">Category</text>
<text text-anchor="start" x="270" y="-346.55" font-family="Helvetica,sans-Serif" font-size="11.00">Description</text>
<text text-anchor="start" x="270" y="-326.55" font-family="Helvetica,sans-Serif" font-size="11.00">Id</text>
<text text-anchor="start" x="270" y="-306.55" font-family="Helvetica,sans-Serif" font-size="11.00">ImageFile</text>
<text text-anchor="start" x="270" y="-286.55" font-family="Helvetica,sans-Serif" font-size="11.00">Name</text>
<text text-anchor="start" x="270" y="-266.55" font-family="Helvetica,sans-Serif" font-size="11.00">Price</text>
<polygon fill="none" stroke="#26803a" points="265,-260 265,-402 329,-402 329,-260 265,-260"/>
</g>
<!-- basket_db.basket&#45;&gt;catalog_db.product -->
<g id="edge3" class="edge">
<title>basket_db.basket:e&#45;&gt;catalog_db.product:w</title>
<path fill="none" stroke="#555555" stroke-width="1.3" d="M155.5,-341C155.5,-341 229.89,-293.45 256.04,-276.73"/>
<polygon fill="#555555" stroke="#555555" stroke-width="1.3" points="257.46,-279.56 263.34,-272.06 254.06,-274.25 257.46,-279.56"/>
</g>
<!-- basket_db.basket&#45;&gt;catalog_db.product -->
<g id="edge4" class="edge">
<title>basket_db.basket:e&#45;&gt;catalog_db.product:w</title>
<path fill="none" stroke="#555555" stroke-width="1.3" d="M155.5,-321C155.5,-321 226.4,-327.48 254.1,-330"/>
<polygon fill="#555555" stroke="#555555" stroke-width="1.3" points="253.79,-333.14 263.04,-330.82 254.36,-326.87 253.79,-333.14"/>
</g>
<!-- basket_db.basket&#45;&gt;catalog_db.product -->
<g id="edge5" class="edge">
<title>basket_db.basket:e&#45;&gt;catalog_db.product:w</title>
<path fill="none" stroke="#555555" stroke-width="1.3" d="M155.5,-301C155.5,-301 226.4,-294.52 254.1,-292"/>
<polygon fill="#555555" stroke="#555555" stroke-width="1.3" points="254.36,-295.13 263.04,-291.18 253.79,-288.86 254.36,-295.13"/>
</g>
<!-- discount_db.coupon -->
<g id="node3" class="node">
<title>discount_db.coupon</title>
<polygon fill="white" stroke="none" points="258.62,-448 258.62,-530 335.38,-530 335.38,-448 258.62,-448"/>
<polygon fill="#d3f2d9" stroke="none" points="259.62,-509 259.62,-529 334.38,-529 334.38,-509 259.62,-509"/>
<text text-anchor="start" x="277.12" y="-515.55" font-family="Helvetica,sans-Serif" font-weight="bold" font-size="11.00">coupon</text>
<text text-anchor="start" x="263.62" y="-494.55" font-family="Helvetica,sans-Serif" font-size="11.00">Amount</text>
<text text-anchor="start" x="263.62" y="-474.55" font-family="Helvetica,sans-Serif" font-size="11.00">Id</text>
<text text-anchor="start" x="263.62" y="-454.55" font-family="Helvetica,sans-Serif" font-size="11.00">ProductName</text>
<polygon fill="none" stroke="#26803a" points="258.62,-448 258.62,-530 335.38,-530 335.38,-448 258.62,-448"/>
</g>
<!-- basket_db.basket&#45;&gt;discount_db.coupon -->
<g id="edge6" class="edge">
<title>basket_db.basket:e&#45;&gt;discount_db.coupon:w</title>
<path fill="none" stroke="#555555" stroke-width="1.3" d="M155.5,-301C155.5,-301 230.97,-416.63 252.79,-450.05"/>
<polygon fill="#555555" stroke="#555555" stroke-width="1.3" points="249.99,-451.54 257.55,-457.35 255.27,-448.09 249.99,-451.54"/>
</g>
<!-- order_db.order -->
<g id="node4" class="node">
<title>order_db.order</title>
<polygon fill="white" stroke="none" points="450.75,-160 450.75,-222 517,-222 517,-160 450.75,-160"/>
<polygon fill="#d3f2d9" stroke="none" points="451.75,-201 451.75,-221 516,-221 516,-201 451.75,-201"/>
<text text-anchor="start" x="469.62" y="-207.55" font-family="Helvetica,sans-Serif" font-weight="bold" font-size="11.00">order</text>
<text text-anchor="start" x="455.75" y="-186.55" font-family="Helvetica,sans-Serif" font-size="11.00">CustomerId</text>
<text text-anchor="start" x="455.75" y="-166.55" font-family="Helvetica,sans-Serif" font-size="11.00">Id</text>
<polygon fill="none" stroke="#26803a" points="450.75,-160 450.75,-222 517,-222 517,-160 450.75,-160"/>
</g>
<!-- catalog_db.product&#45;&gt;order_db.order -->
<!-- order_queue.notification -->
<g id="node5" class="node">
<title>order_queue.notification</title>
<polygon fill="white" stroke="none" points="439.5,-268 439.5,-590 528.25,-590 528.25,-268 439.5,-268"/>
<polygon fill="#d3f2d9" stroke="none" points="440.5,-569 440.5,-589 527.25,-589 527.25,-569 440.5,-569"/>
<text text-anchor="start" x="454.25" y="-575.55" font-family="Helvetica,sans-Serif" font-weight="bold" font-size="11.00">notification</text>
<text text-anchor="start" x="444.5" y="-554.55" font-family="Helvetica,sans-Serif" font-size="11.00">AddressLine</text>
<text text-anchor="start" x="444.5" y="-534.55" font-family="Helvetica,sans-Serif" font-size="11.00">CVV</text>
<text text-anchor="start" x="444.5" y="-514.55" font-family="Helvetica,sans-Serif" font-size="11.00">CardName</text>
<text text-anchor="start" x="444.5" y="-494.55" font-family="Helvetica,sans-Serif" font-size="11.00">CardNumber</text>
<text text-anchor="start" x="444.5" y="-474.55" font-family="Helvetica,sans-Serif" font-size="11.00">Country</text>
<text text-anchor="start" x="444.5" y="-454.55" font-family="Helvetica,sans-Serif" font-size="11.00">CustomerId</text>
<text text-anchor="start" x="444.5" y="-434.55" font-family="Helvetica,sans-Serif" font-size="11.00">EmailAddress</text>
<text text-anchor="start" x="444.5" y="-414.55" font-family="Helvetica,sans-Serif" font-size="11.00">Expiration</text>
<text text-anchor="start" x="444.5" y="-394.55" font-family="Helvetica,sans-Serif" font-size="11.00">FirstName</text>
<text text-anchor="start" x="444.5" y="-374.55" font-family="Helvetica,sans-Serif" font-size="11.00">LastName</text>
<text text-anchor="start" x="444.5" y="-354.55" font-family="Helvetica,sans-Serif" font-size="11.00">PaymentMethod</text>
<text text-anchor="start" x="444.5" y="-334.55" font-family="Helvetica,sans-Serif" font-size="11.00">State</text>
<text text-anchor="start" x="444.5" y="-314.55" font-family="Helvetica,sans-Serif" font-size="11.00">TotalPrice</text>
<text text-anchor="start" x="444.5" y="-294.55" font-family="Helvetica,sans-Serif" font-size="11.00">UserName</text>
<text text-anchor="start" x="444.5" y="-274.55" font-family="Helvetica,sans-Serif" font-size="11.00">ZipCode</text>
<polygon fill="none" stroke="#26803a" points="439.5,-268 439.5,-590 528.25,-590 528.25,-268 439.5,-268"/>
</g>
<!-- catalog_db.product&#45;&gt;order_queue.notification -->
</g>
</svg>
