<?xml version="1.0" encoding="UTF-8" standalone="no"?>
<!DOCTYPE svg PUBLIC "-//W3C//DTD SVG 1.1//EN"
 "http://www.w3.org/Graphics/SVG/1.1/DTD/svg11.dtd">
<!-- Generated by graphviz version 12.2.1 (20241206.2353)
 -->
<!-- Title: simpleshopcascade Pages: 1 -->
<svg width="308pt" height="320pt"
 viewBox="0.00 0.00 307.50 320.00" xmlns="http://www.w3.org/2000/svg" xmlns:xlink="http://www.w3.org/1999/xlink">
<g id="graph0" class="graph" transform="scale(1 1) rotate(0) translate(4 316)">
<title>simpleshopcascade</title>
<polygon fill="white" stroke="none" points="-4,4 -4,-316 303.5,-316 303.5,4 -4,4"/>
<text text-anchor="start" x="54.88" y="-290" font-family="Helvetica,sans-Serif" font-weight="bold" font-size="20.00">simpleshopcascade</text>
<text text-anchor="start" x="103.25" y="-273.8" font-family="Helvetica,sans-Serif" font-size="16.00">data schema</text>
<g id="clust1" class="cluster">
<title>cluster_legend</title>
<polygon fill="none" stroke="none" points="0,-8 0,-260 293.75,-260 293.75,-8 0,-8"/>
<polygon fill="white" stroke="none" points="120.25,-12 120.25,-140 285.75,-140 285.75,-12 120.25,-12"/>
<text text-anchor="start" x="124.25" y="-126.55" font-family="Helvetica,sans-Serif" font-weight="bold" font-size="11.00">Legend</text>
<polygon fill="#d62728" stroke="none" points="124.25,-110.5 124.25,-113.5 148.25,-113.5 148.25,-110.5 124.25,-110.5"/>
<text text-anchor="start" x="154.25" y="-107.55" font-family="Helvetica,sans-Serif" font-size="11.00">mandatory foreign key</text>
<polygon fill="#555555" stroke="none" points="124.25,-92.5 124.25,-95.5 148.25,-95.5 148.25,-92.5 124.25,-92.5"/>
<text text-anchor="start" x="154.25" y="-89.55" font-family="Helvetica,sans-Serif" font-size="11.00">foreign key, not mandatory</text>
<polygon fill="#2a6fd6" stroke="none" points="124.25,-74.5 124.25,-77.5 148.25,-77.5 148.25,-74.5 124.25,-74.5"/>
<text text-anchor="start" x="154.25" y="-71.55" font-family="Helvetica,sans-Serif" font-size="11.00">transitive foreign key</text>
<text text-anchor="start" x="129.88" y="-55.33" font-family="Helvetica,sans-Serif" font-weight="bold" font-size="9.00" fill="#6b6b6b">PK</text>
<text text-anchor="start" x="154.25" y="-53.55" font-family="Helvetica,sans-Serif" font-size="11.00">primary key</text>
<text text-anchor="start" x="129.5" y="-37.33" font-family="Helvetica,sans-Serif" font-weight="bold" font-size="9.00" fill="#6b6b6b">UQ</text>
<text text-anchor="start" x="154.25" y="-35.55" font-family="Helvetica,sans-Serif" font-size="11.00">unique</text>
<text text-anchor="start" x="130.25" y="-19.32" font-family="Helvetica,sans-Serif" font-weight="bold" font-size="9.00" fill="#6b6b6b">FK</text>
<text text-anchor="start" x="154.25" y="-17.55" font-family="Helvetica,sans-Serif" font-size="11.00">foreign key field</text>
<polygon fill="none" stroke="#8a8a8a" points="120.25,-12 120.25,-140 285.75,-140 285.75,-12 120.25,-12"/>
</g>
<g id="clust2" class="cluster">
<title>cluster_db_inventory_db</title>
<path fill="#f1f9f2" stroke="#26803a" d="M20,-152C20,-152 89.25,-152 89.25,-152 95.25,-152 101.25,-158 101.25,-164 101.25,-164 101.25,-240 101.25,-240 101.25,-246 95.25,-252 89.25,-252 89.25,-252 20,-252 20,-252 14,-252 8,-246 8,-240 8,-240 8,-164 8,-164 8,-158 14,-152 20,-152"/>
<text text-anchor="middle" x="54.62" y="-235.65" font-family="Helvetica,sans-Serif" font-size="13.00">inventory_db</text>
</g>
<g id="clust3" class="cluster">
<title>cluster_db_product_db</title>
<path fill="#f1f9f2" stroke="#26803a" d="M214.25,-152C214.25,-152 273.75,-152 273.75,-152 279.75,-152 285.75,-158 285.75,-164 285.75,-164 285.75,-240 285.75,-240 285.75,-246 279.75,-252 273.75,-252 273.75,-252 214.25,-252 214.25,-252 208.25,-252 202.25,-246 202.25,-240 202.25,-240 202.25,-164 202.25,-164 202.25,-158 208.25,-152 214.25,-152"/>
<text text-anchor="middle" x="244" y="-235.65" font-family="Helvetica,sans-Serif" font-size="13.00">product_db</text>
</g>
<!-- inventory_db.inventory -->
<g id="node1" class="node">
<title>inventory_db.inventory</title>
<polygon fill="white" stroke="none" points="24.38,-160 24.38,-222 83.88,-222 83.88,-160 24.38,-160"/>
<polygon fill="#d3f2d9" stroke="none" points="25.38,-201 25.38,-221 82.88,-221 82.88,-201 25.38,-201"/>
<text text-anchor="start" x="29.38" y="-207.55" font-family="Helvetica,sans-Serif" font-weight="bold" font-size="11.00">inventory</text>
<text text-anchor="start" x="29.38" y="-186.55" font-family="Helvetica,sans-Serif" font-size="11.00">Amount</text>
<text text-anchor="start" x="29.38" y="-167.55" font-family="Helvetica,sans-Serif" font-size="11.00">ID </text>
<text text-anchor="start" x="43.62" y="-167.55" font-family="Helvetica,sans-Serif" font-weight="bold" font-size="9.00" fill="#6b6b6b">FK</text>
<polygon fill="none" stroke="#26803a" points="24.38,-160 24.38,-222 83.88,-222 83.88,-160 24.38,-160"/>
</g>
<!-- product_db.product -->
<g id="node2" class="node">
<title>product_db.product</title>
<polygon fill="white" stroke="none" points="211.5,-160 211.5,-222 275.5,-222 275.5,-160 211.5,-160"/>
<polygon fill="#d3f2d9" stroke="none" points="212.5,-201 212.5,-221 274.5,-221 274.5,-201 212.5,-201"/>
<text text-anchor="start" x="222.88" y="-207.55" font-family="Helvetica,sans-Serif" font-weight="bold" font-size="11.00">product</text>
<text text-anchor="start" x="216.5" y="-186.55" font-family="Helvetica,sans-Serif" font-size="11.00">Description</text>
<text text-anchor="start" x="216.5" y="-166.55" font-family="Helvetica,sans-Serif" font-size="11.00">ID</text>
<polygon fill="none" stroke="#26803a" points="211.5,-160 211.5,-222 275.5,-222 275.5,-160 211.5,-160"/>
</g>
<!-- inventory_db.inventory&#45;&gt;product_db.product -->
<g id="edge1" class="edge">
<title>inventory_db.inventory:e&#45;&gt;product_db.product:w</title>
<path fill="none" stroke="#d62728" stroke-width="1.3" d="M83.88,-171C83.88,-171 169.76,-171 200.62,-171"/>
<polygon fill="#d62728" stroke="#d62728" stroke-width="1.3" points="200.53,-174.15 209.53,-171 200.53,-167.85 200.53,-174.15"/>
</g>
</g>
</svg>
