<?xml version="1.0" encoding="UTF-8" standalone="no"?>
<!DOCTYPE svg PUBLIC "-//W3C//DTD SVG 1.1//EN"
 "http://www.w3.org/Graphics/SVG/1.1/DTD/svg11.dtd">
<!-- Generated by graphviz version 12.2.1 (20241206.2353)
 -->
<!-- Title: sockshop Pages: 1 -->
<svg width="708pt" height="1066pt"
 viewBox="0.00 0.00 708.00 1066.00" xmlns="http://www.w3.org/2000/svg" xmlns:xlink="http://www.w3.org/1999/xlink">
<g id="graph0" class="graph" transform="scale(1 1) rotate(0) translate(4 1062)">
<title>sockshop</title>
<polygon fill="white" stroke="none" points="-4,4 -4,-1062 704,-1062 704,4 -4,4"/>
<text text-anchor="start" x="303.5" y="-1036" font-family="Helvetica,sans-Serif" font-weight="bold" font-size="20.00">sockshop</text>
<text text-anchor="start" x="303.5" y="-1019.8" font-family="Helvetica,sans-Serif" font-size="16.00">data schema</text>
<g id="clust1" class="cluster">
<title>cluster_legend</title>
<polygon fill="none" stroke="none" points="8,-8 8,-1006 692,-1006 692,-8 8,-8"/>
<polygon fill="white" stroke="none" points="518.5,-12 518.5,-140 684,-140 684,-12 518.5,-12"/>
<text text-anchor="start" x="522.5" y="-126.55" font-family="Helvetica,sans-Serif" font-weight="bold" font-size="11.00">Legend</text>
<polygon fill="#d62728" stroke="none" points="522.5,-110.5 522.5,-113.5 546.5,-113.5 546.5,-110.5 522.5,-110.5"/>
<text text-anchor="start" x="552.5" y="-107.55" font-family="Helvetica,sans-Serif" font-size="11.00">mandatory foreign key</text>
<polygon fill="#555555" stroke="none" points="522.5,-92.5 522.5,-95.5 546.5,-95.5 546.5,-92.5 522.5,-92.5"/>
<text text-anchor="start" x="552.5" y="-89.55" font-family="Helvetica,sans-Serif" font-size="11.00">foreign key, not mandatory</text>
<polygon fill="#2a6fd6" stroke="none" points="522.5,-74.5 522.5,-77.5 546.5,-77.5 546.5,-74.5 522.5,-74.5"/>
<text text-anchor="start" x="552.5" y="-71.55" font-family="Helvetica,sans-Serif" font-size="11.00">transitive foreign key</text>
<text text-anchor="start" x="528.12" y="-55.33" font-family="Helvetica,sans-Serif" font-weight="bold" font-size="9.00" fill="#6b6b6b">PK</text>
<text text-anchor="start" x="552.5" y="-53.55" font-family="Helvetica,sans-Serif" font-size="11.00">primary key</text>
<text text-anchor="start" x="527.75" y="-37.33" font-family="Helvetica,sans-Serif" font-weight="bold" font-size="9.00" fill="#6b6b6b">UQ</text>
<text text-anchor="start" x="552.5" y="-35.55" font-family="Helvetica,sans-Serif" font-size="11.00">unique</text>
<text text-anchor="start" x="528.5" y="-19.32" font-family="Helvetica,sans-Serif" font-weight="bold" font-size="9.00" fill="#6b6b6b">FK</text>
<text text-anchor="start" x="552.5" y="-17.55" font-family="Helvetica,sans-Serif" font-size="11.00">foreign key field</text>
<polygon fill="none" stroke="#8a8a8a" points="518.5,-12 518.5,-140 684,-140 684,-12 518.5,-12"/>
</g>
<g id="clust2" class="cluster">
<title>cluster_db_cart_db</title>
<path fill="#f1f9f2" stroke="#26803a" d="M233.5,-517C233.5,-517 334.5,-517 334.5,-517 340.5,-517 346.5,-523 346.5,-529 346.5,-529 346.5,-685 346.5,-685 346.5,-691 340.5,-697 334.5,-697 334.5,-697 233.5,-697 233.5,-697 227.5,-697 221.5,-691 221.5,-685 221.5,-685 221.5,-529 221.5,-529 221.5,-523 227.5,-517 233.5,-517"/>
<text text-anchor="middle" x="284" y="-680.65" font-family="Helvetica,sans-Serif" font-size="13.00">cart_db</text>
</g>
<g id="clust3" class="cluster">
<title>cluster_db_catalogue_db</title>
<path fill="#f1f9f2" stroke="#26803a" d="M451.62,-280C451.62,-280 672,-280 672,-280 678,-280 684,-286 684,-292 684,-292 684,-468 684,-468 684,-474 678,-480 672,-480 672,-480 451.62,-480 451.62,-480 445.62,-480 439.62,-474 439.62,-468 439.62,-468 439.62,-292 439.62,-292 439.62,-286 445.62,-280 451.62,-280"/>
<text text-anchor="middle" x="561.81" y="-463.65" font-family="Helvetica,sans-Serif" font-size="13.00">catalogue_db</text>
</g>
<g id="clust4" class="cluster">
<title>cluster_db_order_db</title>
<path fill="#f1f9f2" stroke="#26803a" d="M28,-309C28,-309 124.5,-309 124.5,-309 130.5,-309 136.5,-315 136.5,-321 136.5,-321 136.5,-577 136.5,-577 136.5,-583 130.5,-589 124.5,-589 124.5,-589 28,-589 28,-589 22,-589 16,-583 16,-577 16,-577 16,-321 16,-321 16,-315 22,-309 28,-309"/>
<text text-anchor="middle" x="76.25" y="-572.65" font-family="Helvetica,sans-Serif" font-size="13.00">order_db</text>
</g>
<g id="clust5" class="cluster">
<title>cluster_db_ship_db</title>
<path fill="#f1f9f2" stroke="#26803a" d="M255.62,-369C255.62,-369 312.38,-369 312.38,-369 318.38,-369 324.38,-375 324.38,-381 324.38,-381 324.38,-497 324.38,-497 324.38,-503 318.38,-509 312.38,-509 312.38,-509 255.62,-509 255.62,-509 249.62,-509 243.62,-503 243.62,-497 243.62,-497 243.62,-381 243.62,-381 243.62,-375 249.62,-369 255.62,-369"/>
<text text-anchor="middle" x="284" y="-492.65" font-family="Helvetica,sans-Serif" font-size="13.00">ship_db</text>
</g>
<g id="clust6" class="cluster">
<title>cluster_db_ship_queue</title>
<path fill="#f1f9f2" stroke="#26803a" d="M451.5,-152C451.5,-152 513.25,-152 513.25,-152 519.25,-152 525.25,-158 525.25,-164 525.25,-164 525.25,-260 525.25,-260 525.25,-266 519.25,-272 513.25,-272 513.25,-272 451.5,-272 451.5,-272 445.5,-272 439.5,-266 439.5,-260 439.5,-260 439.5,-164 439.5,-164 439.5,-158 445.5,-152 451.5,-152"/>
<text text-anchor="middle" x="482.38" y="-255.65" font-family="Helvetica,sans-Serif" font-size="13.00">ship_queue</text>
</g>
<g id="clust7" class="cluster">
<title>cluster_db_user_db</title>
<path fill="#f1f9f2" stroke="#26803a" d="M444.12,-488C444.12,-488 519.62,-488 519.62,-488 525.62,-488 531.62,-494 531.62,-500 531.62,-500 531.62,-986 531.62,-986 531.62,-992 525.62,-998 519.62,-998 519.62,-998 444.12,-998 444.12,-998 438.12,-998 432.12,-992 432.12,-986 432.12,-986 432.12,-500 432.12,-500 432.12,-494 438.12,-488 444.12,-488"/>
<text text-anchor="middle" x="481.88" y="-981.65" font-family="Helvetica,sans-Serif" font-size="13.00">user_db</text>
</g>
<!-- cart_db.carts -->
<g id="node1" class="node">
<title>cart_db.carts</title>
<polygon fill="white" stroke="none" points="229.5,-525 229.5,-667 338.5,-667 338.5,-525 229.5,-525"/>
<polygon fill="#d3f2d9" stroke="none" points="230.5,-646 230.5,-666 337.5,-666 337.5,-646 230.5,-646"/>
<text text-anchor="start" x="270.88" y="-652.55" font-family="Helvetica,sans-Serif" font-weight="bold" font-size="11.00">carts</text>
<text text-anchor="start" x="234.5" y="-632.55" font-family="Helvetica,sans-Serif" font-size="11.00">ID </text>
<text text-anchor="start" x="248.75" y="-632.55" font-family="Helvetica,sans-Serif" font-weight="bold" font-size="9.00" fill="#6b6b6b">FK</text>
<text text-anchor="start" x="234.5" y="-611.55" font-family="Helvetica,sans-Serif" font-size="11.00">Items</text>
<text text-anchor="start" x="234.5" y="-591.55" font-family="Helvetica,sans-Serif" font-size="11.00">Items[*]</text>
<text text-anchor="start" x="234.5" y="-572.55" font-family="Helvetica,sans-Serif" font-size="11.00">Items[*].ID </text>
<text text-anchor="start" x="288.5" y="-572.55" font-family="Helvetica,sans-Serif" font-weight="bold" font-size="9.00" fill="#6b6b6b">FK</text>
<text text-anchor="start" x="234.5" y="-551.55" font-family="Helvetica,sans-Serif" font-size="11.00">Items[*].Quantity</text>
<text text-anchor="start" x="234.5" y="-532.55" font-family="Helvetica,sans-Serif" font-size="11.00">Items[*].UnitPrice </text>
<text text-anchor="start" x="321.5" y="-532.55" font-family="Helvetica,sans-Serif" font-weight="bold" font-size="9.00" fill="#6b6b6b">FK</text>
<polygon fill="none" stroke="#26803a" points="229.5,-525 229.5,-667 338.5,-667 338.5,-525 229.5,-525"/>
</g>
<!-- catalogue_db.sock -->
<g id="node2" class="node">
<title>catalogue_db.sock</title>
<polygon fill="white" stroke="none" points="447.62,-288 447.62,-450 516.12,-450 516.12,-288 447.62,-288"/>
<polygon fill="#d3f2d9" stroke="none" points="448.62,-429 448.62,-449 515.12,-449 515.12,-429 448.62,-429"/>
<text text-anchor="start" x="469.5" y="-435.55" font-family="Helvetica,sans-Serif" font-weight="bold" font-size="11.00">sock</text>
<text text-anchor="start" x="452.62" y="-414.55" font-family="Helvetica,sans-Serif" font-size="11.00">ImageURL</text>
<text text-anchor="start" x="452.62" y="-394.55" font-family="Helvetica,sans-Serif" font-size="11.00">ImageURL1</text>
<text text-anchor="start" x="452.62" y="-374.55" font-family="Helvetica,sans-Serif" font-size="11.00">ImageURL2</text>
<text text-anchor="start" x="452.62" y="-354.55" font-family="Helvetica,sans-Serif" font-size="11.00">Price</text>
<text text-anchor="start" x="452.62" y="-334.55" font-family="Helvetica,sans-Serif" font-size="11.00">SockID</text>
<text text-anchor="start" x="452.62" y="-314.55" font-family="Helvetica,sans-Serif" font-size="11.00">TagString</text>
<text text-anchor="start" x="452.62" y="-294.55" font-family="Helvetica,sans-Serif" font-size="11.00">Tags</text>
<polygon fill="none" stroke="#26803a" points="447.62,-288 447.62,-450 516.12,-450 516.12,-288 447.62,-288"/>
</g>
<!-- cart_db.carts&#45;&gt;catalogue_db.sock -->
<g id="edge3" class="edge">
<title>cart_db.carts:e&#45;&gt;catalogue_db.sock:w</title>
<path fill="none" stroke="#555555" stroke-width="1.3" d="M338.5,-576C338.5,-576 422.42,-393.74 443.07,-348.88"/>
<polygon fill="#555555" stroke="#555555" stroke-width="1.3" points="445.9,-350.28 446.8,-340.79 440.18,-347.64 445.9,-350.28"/>
</g>
<!-- cart_db.carts&#45;&gt;catalogue_db.sock -->
<g id="edge4" class="edge">
<title>cart_db.carts:e&#45;&gt;catalogue_db.sock:w</title>
<path fill="none" stroke="#555555" stroke-width="1.3" d="M338.5,-536C338.5,-536 419.83,-404.09 442.06,-368.02"/>
<polygon fill="#555555" stroke="#555555" stroke-width="1.3" points="444.55,-369.99 446.59,-360.67 439.19,-366.68 444.55,-369.99"/>
</g>
<!-- user_db.user -->
<g id="node9" class="node">
<title>user_db.user</title>
<polygon fill="white" stroke="none" points="440.12,-496 440.12,-678 523.62,-678 523.62,-496 440.12,-496"/>
<polygon fill="#d3f2d9" stroke="none" points="441.12,-657 441.12,-677 522.62,-677 522.62,-657 441.12,-657"/>
<text text-anchor="start" x="470.25" y="-663.55" font-family="Helvetica,sans-Serif" font-weight="bold" font-size="11.00">user</text>
<text text-anchor="start" x="445.12" y="-642.55" font-family="Helvetica,sans-Serif" font-size="11.00">Addresses</text>
<text text-anchor="start" x="445.12" y="-622.55" font-family="Helvetica,sans-Serif" font-size="11.00">Cards</text>
<text text-anchor="start" x="445.12" y="-602.55" font-family="Helvetica,sans-Serif" font-size="11.00">User</text>
<text text-anchor="start" x="445.12" y="-582.55" font-family="Helvetica,sans-Serif" font-size="11.00">User.Password</text>
<text text-anchor="start" x="445.12" y="-562.55" font-family="Helvetica,sans-Serif" font-size="11.00">User.Salt</text>
<text text-anchor="start" x="445.12" y="-542.55" font-family="Helvetica,sans-Serif" font-size="11.00">User.UserID</text>
<text text-anchor="start" x="445.12" y="-522.55" font-family="Helvetica,sans-Serif" font-size="11.00">Username</text>
<text text-anchor="start" x="445.12" y="-502.55" font-family="Helvetica,sans-Serif" font-size="11.00">_id</text>
<polygon fill="none" stroke="#26803a" points="440.12,-496 440.12,-678 523.62,-678 523.62,-496 440.12,-496"/>
</g>
<!-- cart_db.carts&#45;&gt;user_db.user -->
<g id="edge2" class="edge">
<title>cart_db.carts:e&#45;&gt;user_db.user:w</title>
<path fill="none" stroke="#555555" stroke-width="1.3" d="M338.5,-636C338.5,-636 408.19,-574.96 432.15,-553.98"/>
<polygon fill="#555555" stroke="#555555" stroke-width="1.3" points="433.95,-556.6 438.64,-548.3 429.8,-551.86 433.95,-556.6"/>
</g>
<!-- catalogue_db.tag -->
<g id="node3" class="node">
<title>catalogue_db.tag</title>
<polygon fill="white" stroke="none" points="626.25,-318 626.25,-360 676,-360 676,-318 626.25,-318"/>
<polygon fill="#d3f2d9" stroke="none" points="627.25,-339 627.25,-359 675,-359 675,-339 627.25,-339"/>
<text text-anchor="start" x="642.88" y="-345.55" font-family="Helvetica,sans-Serif" font-weight="bold" font-size="11.00">tag</text>
<text text-anchor="start" x="631.25" y="-325.55" font-family="Helvetica,sans-Serif" font-style="italic" font-size="11.00" fill="#8a8a8a">no fields</text>
<polygon fill="none" stroke="#26803a" points="626.25,-318 626.25,-360 676,-360 676,-318 626.25,-318"/>
</g>
<!-- catalogue_db.sock&#45;&gt;catalogue_db.tag -->
<!-- order_db.orders -->
<g id="node4" class="node">
<title>order_db.orders</title>
<polygon fill="white" stroke="none" points="24,-317 24,-559 128.5,-559 128.5,-317 24,-317"/>
<polygon fill="#d3f2d9" stroke="none" points="25,-538 25,-558 127.5,-558 127.5,-538 25,-538"/>
<text text-anchor="start" x="59" y="-544.55" font-family="Helvetica,sans-Serif" font-weight="bold" font-size="11.00">orders</text>
<text text-anchor="start" x="29" y="-524.55" font-family="Helvetica,sans-Serif" font-size="11.00">Address </text>
<text text-anchor="start" x="71.75" y="-524.55" font-family="Helvetica,sans-Serif" font-weight="bold" font-size="9.00" fill="#6b6b6b">FK</text>
<text text-anchor="start" x="29" y="-504.55" font-family="Helvetica,sans-Serif" font-size="11.00">Card </text>
<text text-anchor="start" x="56" y="-504.55" font-family="Helvetica,sans-Serif" font-weight="bold" font-size="9.00" fill="#6b6b6b">FK</text>
<text text-anchor="start" x="29" y="-484.55" font-family="Helvetica,sans-Serif" font-size="11.00">CustomerID </text>
<text text-anchor="start" x="90.5" y="-484.55" font-family="Helvetica,sans-Serif" font-weight="bold" font-size="9.00" fill="#6b6b6b">FK</text>
<text text-anchor="start" x="29" y="-463.55" font-family="Helvetica,sans-Serif" font-size="11.00">Date</text>
<text text-anchor="start" x="29" y="-444.55" font-family="Helvetica,sans-Serif" font-size="11.00">ID </text>
<text text-anchor="start" x="43.25" y="-444.55" font-family="Helvetica,sans-Serif" font-weight="bold" font-size="9.00" fill="#6b6b6b">FK</text>
<text text-anchor="start" x="29" y="-424.55" font-family="Helvetica,sans-Serif" font-size="11.00">Items </text>
<text text-anchor="start" x="58.25" y="-424.55" font-family="Helvetica,sans-Serif" font-weight="bold" font-size="9.00" fill="#6b6b6b">FK</text>
<text text-anchor="start" x="29" y="-404.55" font-family="Helvetica,sans-Serif" font-size="11.00">Shipment </text>
<text text-anchor="start" x="77.75" y="-404.55" font-family="Helvetica,sans-Serif" font-weight="bold" font-size="9.00" fill="#6b6b6b">FK</text>
<text text-anchor="start" x="29" y="-384.55" font-family="Helvetica,sans-Serif" font-size="11.00">Shipment.ID </text>
<text text-anchor="start" x="92" y="-384.55" font-family="Helvetica,sans-Serif" font-weight="bold" font-size="9.00" fill="#6b6b6b">FK</text>
<text text-anchor="start" x="29" y="-363.55" font-family="Helvetica,sans-Serif" font-size="11.00">Shipment.Name</text>
<text text-anchor="start" x="29" y="-344.55" font-family="Helvetica,sans-Serif" font-size="11.00">Shipment.Status </text>
<text text-anchor="start" x="111.5" y="-344.55" font-family="Helvetica,sans-Serif" font-weight="bold" font-size="9.00" fill="#6b6b6b">FK</text>
<text text-anchor="start" x="29" y="-323.55" font-family="Helvetica,sans-Serif" font-size="11.00">Total</text>
<polygon fill="none" stroke="#26803a" points="24,-317 24,-559 128.5,-559 128.5,-317 24,-317"/>
</g>
<!-- order_db.orders&#45;&gt;cart_db.carts -->
<g id="edge11" class="edge">
<title>order_db.orders:e&#45;&gt;cart_db.carts:w</title>
<path fill="none" stroke="#555555" stroke-width="1.3" d="M128.5,-428C128.5,-428 203.77,-568.11 224.35,-606.42"/>
<polygon fill="#555555" stroke="#555555" stroke-width="1.3" points="221.53,-607.83 228.57,-614.27 227.08,-604.85 221.53,-607.83"/>
</g>
<!-- ship_db.shipments -->
<g id="node5" class="node">
<title>ship_db.shipments</title>
<polygon fill="white" stroke="none" points="251.62,-377 251.62,-479 316.38,-479 316.38,-377 251.62,-377"/>
<polygon fill="#d3f2d9" stroke="none" points="252.62,-458 252.62,-478 315.38,-478 315.38,-458 252.62,-458"/>
<text text-anchor="start" x="256.62" y="-464.55" font-family="Helvetica,sans-Serif" font-weight="bold" font-size="11.00">shipments</text>
<text text-anchor="start" x="256.62" y="-444.55" font-family="Helvetica,sans-Serif" font-size="11.00">ID </text>
<text text-anchor="start" x="270.88" y="-444.55" font-family="Helvetica,sans-Serif" font-weight="bold" font-size="9.00" fill="#6b6b6b">FK</text>
<text text-anchor="start" x="256.62" y="-423.55" font-family="Helvetica,sans-Serif" font-size="11.00">Name</text>
<text text-anchor="start" x="256.62" y="-403.55" font-family="Helvetica,sans-Serif" font-size="11.00">Status</text>
<text text-anchor="start" x="256.62" y="-383.55" font-family="Helvetica,sans-Serif" font-size="11.00">status</text>
<polygon fill="none" stroke="#26803a" points="251.62,-377 251.62,-479 316.38,-479 316.38,-377 251.62,-377"/>
</g>
<!-- order_db.orders&#45;&gt;ship_db.shipments -->
<g id="edge7" class="edge">
<title>order_db.orders:e&#45;&gt;ship_db.shipments:w</title>
<path fill="none" stroke="#d62728" stroke-width="1.3" d="M128.5,-488C128.5,-488 212.94,-446.85 241.96,-432.71"/>
<polygon fill="#d62728" stroke="#d62728" stroke-width="1.3" points="243.15,-435.64 249.86,-428.86 240.39,-429.97 243.15,-435.64"/>
</g>
<!-- order_db.orders&#45;&gt;ship_db.shipments -->
<g id="edge9" class="edge">
<title>order_db.orders:e&#45;&gt;ship_db.shipments:w</title>
<path fill="none" stroke="#d62728" stroke-width="1.3" d="M128.5,-448C128.5,-448 210.57,-448 240.7,-448"/>
<polygon fill="#d62728" stroke="#d62728" stroke-width="1.3" points="240.66,-451.15 249.66,-448 240.66,-444.85 240.66,-451.15"/>
</g>
<!-- order_db.orders&#45;&gt;ship_db.shipments -->
<g id="edge12" class="edge">
<title>order_db.orders:e&#45;&gt;ship_db.shipments:w</title>
<path fill="none" stroke="#d62728" stroke-width="1.3" d="M128.5,-408C128.5,-408 212.94,-449.15 241.96,-463.29"/>
<polygon fill="#d62728" stroke="#d62728" stroke-width="1.3" points="240.39,-466.03 249.86,-467.14 243.15,-460.36 240.39,-466.03"/>
</g>
<!-- order_db.orders&#45;&gt;ship_db.shipments -->
<g id="edge14" class="edge">
<title>order_db.orders:e&#45;&gt;ship_db.shipments:w</title>
<path fill="none" stroke="#d62728" stroke-width="1.3" d="M128.5,-388C128.5,-388 212.94,-429.15 241.96,-443.29"/>
<polygon fill="#d62728" stroke="#d62728" stroke-width="1.3" points="240.39,-446.03 249.86,-447.14 243.15,-440.36 240.39,-446.03"/>
</g>
<!-- order_db.orders&#45;&gt;ship_db.shipments -->
<g id="edge16" class="edge">
<title>order_db.orders:e&#45;&gt;ship_db.shipments:w</title>
<path fill="none" stroke="#d62728" stroke-width="1.3" d="M128.5,-348C128.5,-348 212.94,-389.15 241.96,-403.29"/>
<polygon fill="#d62728" stroke="#d62728" stroke-width="1.3" points="240.39,-406.03 249.86,-407.14 243.15,-400.36 240.39,-406.03"/>
</g>
<!-- ship_queue.notification -->
<g id="node6" class="node">
<title>ship_queue.notification</title>
<polygon fill="white" stroke="none" points="447.25,-160 447.25,-242 516.5,-242 516.5,-160 447.25,-160"/>
<polygon fill="#d3f2d9" stroke="none" points="448.25,-221 448.25,-241 515.5,-241 515.5,-221 448.25,-221"/>
<text text-anchor="start" x="452.25" y="-227.55" font-family="Helvetica,sans-Serif" font-weight="bold" font-size="11.00">notification</text>
<text text-anchor="start" x="452.25" y="-206.55" font-family="Helvetica,sans-Serif" font-size="11.00">ID</text>
<text text-anchor="start" x="452.25" y="-186.55" font-family="Helvetica,sans-Serif" font-size="11.00">Name</text>
<text text-anchor="start" x="452.25" y="-166.55" font-family="Helvetica,sans-Serif" font-size="11.00">Status</text>
<polygon fill="none" stroke="#26803a" points="447.25,-160 447.25,-242 516.5,-242 516.5,-160 447.25,-160"/>
</g>
<!-- order_db.orders&#45;&gt;ship_queue.notification -->
<g id="edge8" class="edge">
<title>order_db.orders:e&#45;&gt;ship_queue.notification:w</title>
<path fill="none" stroke="#d62728" stroke-width="1.3" d="M128.5,-488C128.5,-488 221.5,-359 221.5,-359 221.5,-359 346.5,-299 346.5,-299 346.5,-299 416.9,-223.53 440,-198.77"/>
<polygon fill="#d62728" stroke="#d62728" stroke-width="1.3" points="442.07,-201.17 445.91,-192.44 437.47,-196.87 442.07,-201.17"/>
</g>
<!-- order_db.orders&#45;&gt;ship_queue.notification -->
<g id="edge10" class="edge">
<title>order_db.orders:e&#45;&gt;ship_queue.notification:w</title>
<path fill="none" stroke="#d62728" stroke-width="1.3" d="M128.5,-448C128.5,-448 221.5,-293 221.5,-293 221.5,-293 346.5,-254 346.5,-254 346.5,-254 411.74,-226.16 437.22,-215.28"/>
<polygon fill="#d62728" stroke="#d62728" stroke-width="1.3" points="438.4,-218.2 445.44,-211.77 435.93,-212.41 438.4,-218.2"/>
</g>
<!-- order_db.orders&#45;&gt;ship_queue.notification -->
<g id="edge13" class="edge">
<title>order_db.orders:e&#45;&gt;ship_queue.notification:w</title>
<path fill="none" stroke="#d62728" stroke-width="1.3" d="M128.5,-408C128.5,-408 221.5,-248 221.5,-248 221.5,-248 391.27,-235.22 436.36,-231.82"/>
<polygon fill="#d62728" stroke="#d62728" stroke-width="1.3" points="436.55,-234.96 445.29,-231.15 436.08,-228.68 436.55,-234.96"/>
</g>
<!-- order_db.orders&#45;&gt;ship_queue.notification -->
<g id="edge15" class="edge">
<title>order_db.orders:e&#45;&gt;ship_queue.notification:w</title>
<path fill="none" stroke="#d62728" stroke-width="1.3" d="M128.5,-388C128.5,-388 221.5,-229 221.5,-229 221.5,-229 391.27,-215.46 436.36,-211.87"/>
<polygon fill="#d62728" stroke="#d62728" stroke-width="1.3" points="436.57,-215.01 445.29,-211.16 436.07,-208.73 436.57,-215.01"/>
</g>
<!-- order_db.orders&#45;&gt;ship_queue.notification -->
<g id="edge17" class="edge">
<title>order_db.orders:e&#45;&gt;ship_queue.notification:w</title>
<path fill="none" stroke="#d62728" stroke-width="1.3" d="M128.5,-348C128.5,-348 221.5,-209 221.5,-209 221.5,-209 392.03,-180.29 436.66,-172.78"/>
<polygon fill="#d62728" stroke="#d62728" stroke-width="1.3" points="436.96,-175.93 445.31,-171.33 435.91,-169.71 436.96,-175.93"/>
</g>
<!-- user_db.address -->
<g id="node7" class="node">
<title>user_db.address</title>
<polygon fill="white" stroke="none" points="449.88,-866 449.88,-968 513.88,-968 513.88,-866 449.88,-866"/>
<polygon fill="#d3f2d9" stroke="none" points="450.88,-947 450.88,-967 512.88,-967 512.88,-947 450.88,-947"/>
<text text-anchor="start" x="460.88" y="-953.55" font-family="Helvetica,sans-Serif" font-weight="bold" font-size="11.00">address</text>
<text text-anchor="start" x="454.88" y="-932.55" font-family="Helvetica,sans-Serif" font-size="11.00">Address</text>
<text text-anchor="start" x="454.88" y="-912.55" font-family="Helvetica,sans-Serif" font-size="11.00">Address.ID</text>
<text text-anchor="start" x="454.88" y="-892.55" font-family="Helvetica,sans-Serif" font-size="11.00">ID</text>
<text text-anchor="start" x="454.88" y="-872.55" font-family="Helvetica,sans-Serif" font-size="11.00">_id</text>
<polygon fill="none" stroke="#26803a" points="449.88,-866 449.88,-968 513.88,-968 513.88,-866 449.88,-866"/>
</g>
<!-- order_db.orders&#45;&gt;user_db.address -->
<g id="edge5" class="edge">
<title>order_db.orders:e&#45;&gt;user_db.address:w</title>
<path fill="none" stroke="#555555" stroke-width="1.3" d="M128.5,-528C128.5,-528 221.5,-739 221.5,-739 221.5,-739 401.06,-894.68 441.75,-929.95"/>
<polygon fill="#555555" stroke="#555555" stroke-width="1.3" points="439.52,-932.2 448.39,-935.71 443.65,-927.44 439.52,-932.2"/>
</g>
<!-- user_db.card -->
<g id="node8" class="node">
<title>user_db.card</title>
<polygon fill="white" stroke="none" points="457.75,-721 457.75,-823 506,-823 506,-721 457.75,-721"/>
<polygon fill="#d3f2d9" stroke="none" points="458.75,-802 458.75,-822 505,-822 505,-802 458.75,-802"/>
<text text-anchor="start" x="470.25" y="-808.55" font-family="Helvetica,sans-Serif" font-weight="bold" font-size="11.00">card</text>
<text text-anchor="start" x="462.75" y="-787.55" font-family="Helvetica,sans-Serif" font-size="11.00">Card</text>
<text text-anchor="start" x="462.75" y="-767.55" font-family="Helvetica,sans-Serif" font-size="11.00">Card.ID</text>
<text text-anchor="start" x="462.75" y="-747.55" font-family="Helvetica,sans-Serif" font-size="11.00">ID</text>
<text text-anchor="start" x="462.75" y="-727.55" font-family="Helvetica,sans-Serif" font-size="11.00">_id</text>
<polygon fill="none" stroke="#26803a" points="457.75,-721 457.75,-823 506,-823 506,-721 457.75,-721"/>
</g>
<!-- order_db.orders&#45;&gt;user_db.card -->
<g id="edge6" class="edge">
<title>order_db.orders:e&#45;&gt;user_db.card:w</title>
<path fill="none" stroke="#555555" stroke-width="1.3" d="M128.5,-508C128.5,-508 221.5,-707 221.5,-707 221.5,-707 402.38,-772.08 447.6,-788.35"/>
<polygon fill="#555555" stroke="#555555" stroke-width="1.3" points="446.36,-791.25 455.9,-791.33 448.5,-785.32 446.36,-791.25"/>
</g>
<!-- ship_db.shipments&#45;&gt;ship_queue.notification -->
<g id="edge18" class="edge">
<title>ship_db.shipments:e&#45;&gt;ship_queue.notification:w</title>
<path fill="none" stroke="#555555" stroke-width="1.3" d="M316.38,-448C316.38,-448 417.47,-264.92 441.96,-220.58"/>
<polygon fill="#555555" stroke="#555555" stroke-width="1.3" points="444.71,-222.12 446.3,-212.72 439.19,-219.08 444.71,-222.12"/>
</g>
</g>
</svg>
